<svg id="visual" viewBox="0 0 1920 1000" width="1920" height="1000" xmlns="http://www.w3.org/2000/svg" xmlns:xlink="http://www.w3.org/1999/xlink" version="1.1"><path d="M0 131L29.2 137.7C58.3 144.3 116.7 157.7 174.8 152.7C233 147.7 291 124.3 349.2 117.7C407.3 111 465.7 121 523.8 117.7C582 114.3 640 97.7 698.2 102.7C756.3 107.7 814.7 134.3 872.8 136C931 137.7 989 114.3 1047.2 101C1105.3 87.7 1163.7 84.3 1221.8 79.3C1280 74.3 1338 67.7 1396.2 76C1454.3 84.3 1512.7 107.7 1570.8 117.7C1629 127.7 1687 124.3 1745.2 122.7C1803.3 121 1861.7 121 1890.8 121L1920 121L1920 0L1890.8 0C1861.7 0 1803.3 0 1745.2 0C1687 0 1629 0 1570.8 0C1512.7 0 1454.3 0 1396.2 0C1338 0 1280 0 1221.8 0C1163.7 0 1105.3 0 1047.2 0C989 0 931 0 872.8 0C814.7 0 756.3 0 698.2 0C640 0 582 0 523.8 0C465.7 0 407.3 0 349.2 0C291 0 233 0 174.8 0C116.7 0 58.3 0 29.2 0L0 0Z" fill="#ff8f8c"></path><path d="M0 261L29.2 272.7C58.3 284.3 116.7 307.7 174.8 301C233 294.3 291 257.7 349.2 269.3C407.3 281 465.7 341 523.8 346C582 351 640 301 698.2 281C756.3 261 814.7 271 872.8 261C931 251 989 221 1047.2 214.3C1105.3 207.7 1163.7 224.3 1221.8 226C1280 227.7 1338 214.3 1396.2 234.3C1454.3 254.3 1512.7 307.7 1570.8 336C1629 364.3 1687 367.7 1745.2 357.7C1803.3 347.7 1861.7 324.3 1890.8 312.7L1920 301L1920 119L1890.8 119C1861.7 119 1803.3 119 1745.2 120.7C1687 122.3 1629 125.7 1570.8 115.7C1512.7 105.7 1454.3 82.3 1396.2 74C1338 65.7 1280 72.3 1221.8 77.3C1163.7 82.3 1105.3 85.7 1047.2 99C989 112.3 931 135.7 872.8 134C814.7 132.3 756.3 105.7 698.2 100.7C640 95.7 582 112.3 523.8 115.7C465.7 119 407.3 109 349.2 115.7C291 122.3 233 145.7 174.8 150.7C116.7 155.7 58.3 142.3 29.2 135.7L0 129Z" fill="#fe7472"></path><path d="M0 381L29.2 399.3C58.3 417.7 116.7 454.3 174.8 452.7C233 451 291 411 349.2 412.7C407.3 414.3 465.7 457.7 523.8 464.3C582 471 640 441 698.2 417.7C756.3 394.3 814.7 377.7 872.8 374.3C931 371 989 381 1047.2 376C1105.3 371 1163.7 351 1221.8 344.3C1280 337.7 1338 344.3 1396.2 369.3C1454.3 394.3 1512.7 437.7 1570.8 467.7C1629 497.7 1687 514.3 1745.2 519.3C1803.3 524.3 1861.7 517.7 1890.8 514.3L1920 511L1920 299L1890.8 310.7C1861.7 322.3 1803.3 345.7 1745.2 355.7C1687 365.7 1629 362.3 1570.8 334C1512.7 305.7 1454.3 252.3 1396.2 232.3C1338 212.3 1280 225.7 1221.8 224C1163.7 222.3 1105.3 205.7 1047.2 212.3C989 219 931 249 872.8 259C814.7 269 756.3 259 698.2 279C640 299 582 349 523.8 344C465.7 339 407.3 279 349.2 267.3C291 255.7 233 292.3 174.8 299C116.7 305.7 58.3 282.3 29.2 270.7L0 259Z" fill="#fa5757"></path><path d="M0 761L29.2 744.3C58.3 727.7 116.7 694.3 174.8 702.7C233 711 291 761 349.2 784.3C407.3 807.7 465.7 804.3 523.8 807.7C582 811 640 821 698.2 819.3C756.3 817.7 814.7 804.3 872.8 782.7C931 761 989 731 1047.2 711C1105.3 691 1163.7 681 1221.8 656C1280 631 1338 591 1396.2 604.3C1454.3 617.7 1512.7 684.3 1570.8 719.3C1629 754.3 1687 757.7 1745.2 756C1803.3 754.3 1861.7 747.7 1890.8 744.3L1920 741L1920 509L1890.8 512.3C1861.7 515.7 1803.3 522.3 1745.2 517.3C1687 512.3 1629 495.7 1570.8 465.7C1512.7 435.7 1454.3 392.3 1396.2 367.3C1338 342.3 1280 335.7 1221.8 342.3C1163.7 349 1105.3 369 1047.2 374C989 379 931 369 872.8 372.3C814.7 375.7 756.3 392.3 698.2 415.7C640 439 582 469 523.8 462.3C465.7 455.7 407.3 412.3 349.2 410.7C291 409 233 449 174.8 450.7C116.7 452.3 58.3 415.7 29.2 397.3L0 379Z" fill="#dc4848"></path><path d="M0 1001L29.2 1001C58.3 1001 116.7 1001 174.8 1001C233 1001 291 1001 349.2 1001C407.3 1001 465.7 1001 523.8 1001C582 1001 640 1001 698.2 1001C756.3 1001 814.7 1001 872.8 1001C931 1001 989 1001 1047.2 1001C1105.3 1001 1163.7 1001 1221.8 1001C1280 1001 1338 1001 1396.2 1001C1454.3 1001 1512.7 1001 1570.8 1001C1629 1001 1687 1001 1745.2 1001C1803.3 1001 1861.7 1001 1890.8 1001L1920 1001L1920 739L1890.8 742.3C1861.7 745.7 1803.3 752.3 1745.2 754C1687 755.7 1629 752.3 1570.8 717.3C1512.7 682.3 1454.3 615.7 1396.2 602.3C1338 589 1280 629 1221.8 654C1163.7 679 1105.3 689 1047.2 709C989 729 931 759 872.8 780.7C814.7 802.3 756.3 815.7 698.2 817.3C640 819 582 809 523.8 805.7C465.7 802.3 407.3 805.7 349.2 782.3C291 759 233 709 174.8 700.7C116.7 692.3 58.3 725.7 29.2 742.3L0 759Z" fill="#be3a3a"></path></svg>